PathFileType	4	(X/Y/Z)																																																																																																																																																																																															
DataRate	CameraRate	NumFrames	NumMarkers	Units	OrigDataRate	OrigDataStartFrame	OrigNumFrames																																																																																																																																																																																										
100	100	4	64	     mm	100	1	397																																																																																																																																																																																										
Frame#	Time	LASI			RASI			LPSI			RPSI			RTH2			RTH3			RLFC			RMFC			LTH1			LTH2			LTH3			LLFC			LMFC			RTB1			RTB2			RTB3			RLMAL			RMMAL			LTB1			LTB2			LTB3			LLMAL			LMMAL			RCAL			RTOE			RMT5			LCAL			LTOE			LMT5			LACR			RACR			CLAV			C7			LASH			LPSH			RASH			RPSH			RUA1			RUA2			RUA3			RLEL			RMEL			LUA1			LUA2			LUA3			LLEL			LMEL			RFAsuperior			RFAradius			RFAulna			LFAsuperior			LFAradius			LFAulna			RTH1			RHJC			LHJC			RKJC			LKJC			RAJC			LAJC			RSJC			LSJC			REJC			LEJC		
		X1	Y1	Z1	X2	Y2	Z2	X3	Y3	Z3	X4	Y4	Z4	X5	Y5	Z5	X6	Y6	Z6	X7	Y7	Z7	X8	Y8	Z8	X9	Y9	Z9	X10	Y10	Z10	X11	Y11	Z11	X12	Y12	Z12	X13	Y13	Z13	X14	Y14	Z14	X15	Y15	Z15	X16	Y16	Z16	X17	Y17	Z17	X18	Y18	Z18	X19	Y19	Z19	X20	Y20	Z20	X21	Y21	Z21	X22	Y22	Z22	X23	Y23	Z23	X24	Y24	Z24	X25	Y25	Z25	X26	Y26	Z26	X27	Y27	Z27	X28	Y28	Z28	X29	Y29	Z29	X30	Y30	Z30	X31	Y31	Z31	X32	Y32	Z32	X33	Y33	Z33	X34	Y34	Z34	X35	Y35	Z35	X36	Y36	Z36	X37	Y37	Z37	X38	Y38	Z38	X39	Y39	Z39	X40	Y40	Z40	X41	Y41	Z41	X42	Y42	Z42	X43	Y43	Z43	X44	Y44	Z44	X45	Y45	Z45	X46	Y46	Z46	X47	Y47	Z47	X48	Y48	Z48	X49	Y49	Z49	X50	Y50	Z50	X51	Y51	Z51	X52	Y52	Z52	X53	Y53	Z53	X54	Y54	Z54	X55	Y55	Z55	X56	Y56	Z56	X57	Y57	Z57	X58	Y58	Z58	X59	Y59	Z59	X60	Y60	Z60	X61	Y61	Z61	X62	Y62	Z62	X63	Y63	Z63	X64	Y64	Z64
																																																																																																																																																																																																	
1	0	629.6712	1082.20154	-356.61258	375.48447	1074.74255	-356.89041	560.80139	1126.67883	-518.92706	447.43372	1119.54968	-520.38989	341.01895	820.37903	-500.81528	333.9765	666.23901	-474.35184	335.90683	561.987	-470.77991	450.8157	536.57587	-457.62824	691.17133	955.65778	-416.87714	658.91754	806.20502	-502.7211	675.27228	670.21533	-464.95187	672.04883	551.49548	-454.14597	562.35889	520.29712	-470.90109	374.48312	406.26804	-435.95987	318.81397	370.40036	-525.65393	379.33264	220.51608	-471.27402	331.78882	119.52488	-528.85675	421.1171	130.18098	-504.25925	640.41547	440.72751	-423.9949	689.75317	342.23959	-514.99133	648.35809	227.95833	-454.97675	680.13281	124.74693	-507.85986	593.22986	130.98271	-490.81921	388.91632	97.45474	-596.78046	373.45783	76.02487	-352.29065	287.39093	52.67742	-412.85327	618.74438	97.73419	-579.85828	645.25024	79.07529	-343.60568	735.05884	43.66471	-403.83719	635.14435	1577.11926	-486.45471	343.14828	1565.87195	-467.22485	459.11044	1529.54065	-405.36499	499.99567	1581.02124	-528.74518	647.56683	1544.73144	-423.04263	663.91016	1514.00818	-543.2688	330.85831	1528.25488	-413.59445	324.2341	1496.79041	-549.81305	246.68234	1469.59522	-529.34857	185.93298	1479.51148	-477.39334	101.61106	1423.5592	-503.14627	41.53618	1386.24951	-512.55975	78.78915	1326.31921	-464.01971	734.95514	1490.16382	-529.00604	811.04871	1498.76379	-482.64597	889.19232	1455.03723	-507.94153	960.67828	1437.09888	-498.04114	927.56091	1355.45874	-477.24197	-26.90134	1397.37732	-427.19424	-58.5262	1371.14661	-251.33389	-117.76784	1367.67712	-289.05319	1016.42224	1423.1665	-430.035	1022.76325	1371.90796	-244.97325	1091.08179	1385.349	-261.90888	306.97579	956.76921	-411.298	412.93916	976.97557	-432.91748	588.14434	1000.88113	-440.53953	393.36127	549.28143	-464.20407	617.20386	535.8963	-462.52353	376.45296	124.85293	-516.558	636.68134	127.86482	-499.33954	327.5462	1512.52264	-481.70375	655.73849	1529.36981	-483.15572	60.16266	1356.28436	-488.28973	944.1196	1396.27881	-487.64156
2	0.01	629.69171	1082.18665	-356.66541	375.47174	1074.73975	-356.92569	560.79926	1126.65051	-519.01697	447.38458	1119.54602	-520.40906	340.9949	820.33734	-500.80597	334.02283	666.21698	-474.37564	335.89273	561.96124	-470.76846	450.83783	536.60083	-457.68137	691.17059	955.65851	-416.87622	658.90289	806.17261	-502.68848	675.25275	670.21442	-464.96777	672.05402	551.48273	-454.14807	562.35761	520.29358	-470.91309	374.4693	406.29568	-435.97052	318.78119	370.42514	-525.66956	379.36801	220.4747	-471.2749	331.79044	119.5266	-528.84125	421.11295	130.17215	-504.23587	640.41211	440.73657	-424.04483	689.72974	342.23602	-515	648.35364	227.99063	-454.96652	680.12036	124.74944	-507.85287	593.25855	130.98407	-490.79416	388.8992	97.43996	-596.76495	373.46057	76.02477	-352.26495	287.39093	52.67742	-412.85327	618.70154	97.70994	-579.81189	645.25677	79.08209	-343.62024	735.04773	43.66341	-403.85498	635.17548	1577.12341	-486.45471	343.15015	1565.92847	-467.24332	459.12097	1529.53357	-405.41696	500.01285	1581.01318	-528.81201	647.60602	1544.68127	-423.13907	663.89722	1513.96948	-543.26672	330.88925	1528.17871	-413.56162	324.24323	1496.82898	-549.86127	246.70766	1469.57617	-529.448	186.01488	1479.5697	-477.49551	101.61046	1423.56653	-503.20435	41.52018	1386.28455	-512.62213	78.81167	1326.3429	-464.06116	734.95502	1490.14636	-529.03912	811.03705	1498.72693	-482.72525	889.21881	1454.95337	-508.22446	960.65588	1437.0238	-498.04108	927.54138	1355.38709	-477.3468	-26.91019	1397.44055	-427.24179	-58.57964	1371.25281	-251.42032	-117.79325	1367.71973	-289.14395	1016.41901	1423.09216	-430.10162	1022.58209	1371.77185	-244.84923	1091.05371	1385.23645	-261.94867	306.96686	956.76139	-411.30125	412.92677	976.96457	-432.94166	588.13131	1000.86645	-440.59779	393.36528	549.28104	-464.22491	617.20581	535.88815	-462.53058	376.45169	124.84938	-516.53856	636.68945	127.86676	-499.32352	327.56624	1512.50385	-481.71144	655.75162	1529.32538	-483.2029	60.16593	1356.31372	-488.34164	944.09863	1396.20544	-487.69394
3	0.02	629.68561	1082.18481	-356.65765	375.50125	1074.75671	-356.93793	560.69501	1126.46436	-518.97315	447.37534	1119.53479	-520.46686	340.93976	820.35779	-500.88898	333.96878	666.24402	-474.39273	335.86517	561.97809	-470.85818	450.79425	536.54675	-457.60785	691.15967	955.64758	-416.92093	658.92206	806.19556	-502.76193	675.25275	670.21442	-464.9679	672.0332	551.47717	-454.1087	562.302	520.29419	-471.11887	374.47629	406.27066	-435.99167	318.76166	370.44748	-525.67145	379.3725	220.49658	-471.27249	331.80316	119.53784	-528.86292	421.10898	130.16602	-504.25278	640.39746	440.73303	-423.98251	689.71942	342.22577	-514.99097	648.36017	228.01143	-454.96497	680.15253	124.75285	-507.85086	593.29199	130.97348	-490.78686	388.88156	97.43041	-596.74335	373.48401	76.02579	-352.28388	287.33432	52.63235	-412.87997	618.70099	97.70986	-579.81128	645.25903	79.0848	-343.61588	735.06415	43.6571	-403.81409	635.185	1577.12769	-486.44913	343.16898	1565.93103	-467.30438	459.09918	1529.53406	-405.5174	500.02432	1580.93909	-528.69659	647.64746	1544.672	-423.14709	663.89728	1513.97449	-543.35034	330.95807	1528.23047	-413.67691	324.24323	1496.82898	-549.86176	246.69338	1469.60132	-529.54071	186.01975	1479.54858	-477.53961	101.59667	1423.58301	-503.26642	41.54269	1386.2948	-512.69641	78.80064	1326.37061	-464.09348	734.98425	1490.14001	-529.15228	811.04596	1498.67285	-482.75617	889.28247	1454.85144	-508.58225	960.66547	1436.96228	-498.10693	927.52618	1355.32288	-477.41217	-26.91883	1397.48279	-427.28555	-58.58925	1371.3031	-251.48041	-117.8129	1367.78467	-289.17526	1016.42291	1422.98791	-430.1807	1022.57373	1371.69104	-244.93462	1091.0293	1385.14063	-262.04709	306.96309	956.71961	-411.1429	412.91382	976.91654	-432.83815	588.11511	1000.82532	-440.57914	393.32971	549.26242	-464.23302	617.1676	535.88568	-462.61379	376.45607	124.85193	-516.55785	636.72226	127.86317	-499.31886	327.60065	1512.52972	-481.76933	655.77237	1529.32324	-483.24872	60.17166	1356.3327	-488.39494	944.09582	1396.14258	-487.75955
4	0.03	629.65112	1082.19031	-356.73285	375.48004	1074.76367	-357.02033	560.92395	1126.54749	-519.5318	447.36356	1119.53723	-520.4906	340.92651	820.35761	-500.89221	333.94125	666.18573	-474.38583	335.83914	561.89856	-470.77216	450.82459	536.59119	-457.7236	691.14795	955.63739	-416.96515	658.92334	806.19629	-502.76489	675.24646	670.21637	-465.00064	672.03864	551.48358	-454.16537	561.43805	520.60138	-473.83255	374.47696	406.2908	-436.03125	318.80319	370.42068	-525.69299	379.36282	220.48386	-471.32233	331.80145	119.50761	-528.85901	421.11295	130.17213	-504.23602	640.41083	440.73071	-424.02451	689.72595	342.22372	-515.00348	648.36462	227.97925	-454.9751	680.12054	124.74926	-507.85287	593.29266	130.96999	-490.77756	388.87006	97.42015	-596.73852	373.48142	76.0259	-352.30978	287.39087	52.65096	-412.88458	618.70154	97.70994	-579.81189	645.24713	79.08553	-343.60687	735.0531	43.65581	-403.83127	635.17078	1577.07544	-486.53931	343.20993	1565.91003	-467.35568	459.1351	1529.49805	-405.53009	500.01816	1580.95422	-528.7204	647.67096	1544.67517	-423.21353	663.88458	1513.9585	-543.40173	330.96982	1528.14661	-413.6915	324.24487	1496.83984	-549.93054	246.7005	1469.62524	-529.56628	186.04332	1479.58228	-477.59744	101.63262	1423.59375	-503.35376	41.55948	1386.32996	-512.73212	78.77705	1326.38684	-464.16028	734.95904	1490.10278	-529.17102	811.04474	1498.64771	-482.79785	889.25147	1454.80493	-508.58612	960.66773	1436.88501	-498.27182	927.51776	1355.26111	-477.49176	-26.90292	1397.53979	-427.36502	-58.70788	1371.45532	-251.43105	-117.82643	1367.87317	-289.25702	1016.40888	1422.91235	-430.2605	1022.5387	1371.61755	-244.98944	1090.9967	1385.02783	-262.12476	306.95507	956.7798	-411.42611	412.92535	976.95215	-433.04242	588.13536	1000.82377	-440.65171	393.33186	549.24487	-464.24788	616.73834	536.04248	-463.99896	376.4572	124.83987	-516.54752	636.7066	127.85962	-499.31522	327.60735	1512.49323	-481.81102	655.77777	1529.31683	-483.30763	60.16826	1356.3584	-488.4462	944.09274	1396.07306	-487.88179
